<svg width="100" height="100" viewBox="0 0 100 100" fill="none" xmlns="http://www.w3.org/2000/svg">
<g clip-path="url(#clip0_693_149)">
<rect width="100" height="100" fill="#148240"/>
<mask id="path-1-outside-1_693_149" maskUnits="userSpaceOnUse" x="15" y="9.45459" width="69" height="92" fill="black">
<rect fill="white" x="15" y="9.45459" width="69" height="92"/>
<path d="M82.1591 87.6932V99.5682C80.6061 100.099 77.9545 100.364 74.2045 100.364C68.4091 100.364 62.9735 99.1137 57.8977 96.6137C52.822 94.0758 48.2955 90.4394 44.3182 85.7046C41.8561 89.0758 38.2955 93.6591 33.6364 99.4546H17.2159C24.9432 90.6288 31.7235 82.5985 37.5568 75.3637C32.1402 65.0985 29.4318 52.8826 29.4318 38.716C29.4318 29.0569 31.0795 22.0304 34.375 17.6364C37.7083 13.2425 42.5379 11.0455 48.8636 11.0455C61.7424 11.0455 68.1818 18.9811 68.1818 34.8523C68.0682 41.7463 66.9886 47.8258 64.9432 53.091C62.9356 58.3561 58.7311 65.591 52.3295 74.7955C58.2765 83.6213 66.3447 88.0341 76.5341 88.0341C78.6174 88.0341 80.4924 87.9205 82.1591 87.6932ZM46.5341 62.9205C50.2083 57.2387 52.5379 52.5038 53.5227 48.716C54.6212 44.5493 55.1705 40.0607 55.1705 35.25C55.1705 30.8182 54.6591 27.7311 53.6364 25.9887C52.6136 24.2463 51.0227 23.375 48.8636 23.375C46.7803 23.375 45.2841 24.5114 44.375 26.7841C43.5038 29.0569 43.0682 33.0341 43.0682 38.716C43.0682 47.6932 44.2235 55.7614 46.5341 62.9205Z"/>
</mask>
<path d="M82.1591 87.6932V99.5682C80.6061 100.099 77.9545 100.364 74.2045 100.364C68.4091 100.364 62.9735 99.1137 57.8977 96.6137C52.822 94.0758 48.2955 90.4394 44.3182 85.7046C41.8561 89.0758 38.2955 93.6591 33.6364 99.4546H17.2159C24.9432 90.6288 31.7235 82.5985 37.5568 75.3637C32.1402 65.0985 29.4318 52.8826 29.4318 38.716C29.4318 29.0569 31.0795 22.0304 34.375 17.6364C37.7083 13.2425 42.5379 11.0455 48.8636 11.0455C61.7424 11.0455 68.1818 18.9811 68.1818 34.8523C68.0682 41.7463 66.9886 47.8258 64.9432 53.091C62.9356 58.3561 58.7311 65.591 52.3295 74.7955C58.2765 83.6213 66.3447 88.0341 76.5341 88.0341C78.6174 88.0341 80.4924 87.9205 82.1591 87.6932ZM46.5341 62.9205C50.2083 57.2387 52.5379 52.5038 53.5227 48.716C54.6212 44.5493 55.1705 40.0607 55.1705 35.25C55.1705 30.8182 54.6591 27.7311 53.6364 25.9887C52.6136 24.2463 51.0227 23.375 48.8636 23.375C46.7803 23.375 45.2841 24.5114 44.375 26.7841C43.5038 29.0569 43.0682 33.0341 43.0682 38.716C43.0682 47.6932 44.2235 55.7614 46.5341 62.9205Z" fill="#FBF2E5"/>
<path d="M82.1591 87.6932H83.0682V86.6518L82.0363 86.7925L82.1591 87.6932ZM82.1591 99.5682L82.4529 100.429L83.0682 100.218V99.5682H82.1591ZM57.8977 96.6137L57.4912 97.4268L57.496 97.4292L57.8977 96.6137ZM44.3182 85.7046L45.0143 85.1199L44.2682 84.2317L43.584 85.1684L44.3182 85.7046ZM33.6364 99.4546V100.364H34.072L34.3449 100.024L33.6364 99.4546ZM17.2159 99.4546L16.5319 98.8557L15.2117 100.364H17.2159V99.4546ZM37.5568 75.3637L38.2645 75.9343L38.64 75.4686L38.3608 74.9394L37.5568 75.3637ZM34.375 17.6364L33.6507 17.087L33.6477 17.091L34.375 17.6364ZM68.1818 34.8523L69.0908 34.8673L69.0909 34.8598V34.8523H68.1818ZM64.9432 53.091L64.0958 52.7617L64.0937 52.7671L64.9432 53.091ZM52.3295 74.7955L51.5832 74.2764L51.2279 74.7874L51.5756 75.3035L52.3295 74.7955ZM46.5341 62.9205L45.6689 63.1997L46.2573 65.0227L47.2975 63.4142L46.5341 62.9205ZM53.5227 48.716L52.6437 48.4842L52.6429 48.4872L53.5227 48.716ZM44.375 26.7841L43.5308 26.4465L43.5261 26.4587L44.375 26.7841ZM82.1591 87.6932H81.25V99.5682H82.1591H83.0682V87.6932H82.1591ZM82.1591 99.5682L81.8653 98.7079C80.4675 99.1852 77.9498 99.4546 74.2045 99.4546V100.364V101.273C77.9593 101.273 80.7446 101.012 82.4529 100.429L82.1591 99.5682ZM74.2045 100.364V99.4546C68.5449 99.4546 63.2471 98.2351 58.2994 95.7981L57.8977 96.6137L57.496 97.4292C62.6999 99.9923 68.2733 101.273 74.2045 101.273V100.364ZM57.8977 96.6137L58.3043 95.8006C53.3493 93.3231 48.9189 89.7682 45.0143 85.1199L44.3182 85.7046L43.6221 86.2893C47.672 91.1107 52.2947 94.8286 57.4912 97.4268L57.8977 96.6137ZM44.3182 85.7046L43.584 85.1684C41.1342 88.5228 37.5838 93.0935 32.9278 98.885L33.6364 99.4546L34.3449 100.024C39.0071 94.2248 42.5779 89.6288 45.0523 86.2408L44.3182 85.7046ZM33.6364 99.4546V98.5455H17.2159V99.4546V100.364H33.6364V99.4546ZM17.2159 99.4546L17.8999 100.053C25.6333 91.2207 32.4218 83.1808 38.2645 75.9343L37.5568 75.3637L36.8491 74.7931C31.0252 82.0163 24.2531 90.037 16.5319 98.8557L17.2159 99.4546ZM37.5568 75.3637L38.3608 74.9394C33.0268 64.8309 30.3409 52.767 30.3409 38.716H29.4318H28.5227C28.5227 52.9982 31.2535 65.3662 36.7528 75.7879L37.5568 75.3637ZM29.4318 38.716H30.3409C30.3409 29.1209 31.9852 22.3379 35.1023 18.1819L34.375 17.6364L33.6477 17.091C30.1739 21.7228 28.5227 28.9928 28.5227 38.716H29.4318ZM34.375 17.6364L35.0993 18.1859C38.2339 14.0539 42.7747 11.9546 48.8636 11.9546V11.0455V10.1364C42.301 10.1364 37.1828 12.4311 33.6507 17.087L34.375 17.6364ZM48.8636 11.0455V11.9546C55.1068 11.9546 59.6429 13.8688 62.6464 17.57C65.6792 21.3076 67.2727 27.0161 67.2727 34.8523H68.1818H69.0909C69.0909 26.8173 67.4647 20.6224 64.0582 16.4244C60.6222 12.19 55.4992 10.1364 48.8636 10.1364V11.0455ZM68.1818 34.8523L67.2729 34.8373C67.1606 41.6467 66.0948 47.6163 64.0958 52.7617L64.9432 53.091L65.7906 53.4202C67.8825 48.0353 68.9758 41.8458 69.0908 34.8673L68.1818 34.8523ZM64.9432 53.091L64.0937 52.7671C62.1272 57.9247 57.9754 65.0853 51.5832 74.2764L52.3295 74.7955L53.0759 75.3146C59.4867 66.0966 63.744 58.7875 65.7926 53.4148L64.9432 53.091ZM52.3295 74.7955L51.5756 75.3035C57.6826 84.3667 66.0266 88.9432 76.5341 88.9432V88.0341V87.125C66.6628 87.125 58.8704 82.8758 53.0835 74.2875L52.3295 74.7955ZM76.5341 88.0341V88.9432C78.6493 88.9432 80.5663 88.8279 82.2819 88.594L82.1591 87.6932L82.0363 86.7925C80.4185 87.0131 78.5856 87.125 76.5341 87.125V88.0341ZM46.5341 62.9205L47.2975 63.4142C50.9919 57.7011 53.3818 52.8708 54.4026 48.9447L53.5227 48.716L52.6429 48.4872C51.694 52.1368 49.4247 56.7763 45.7707 62.4268L46.5341 62.9205ZM53.5227 48.716L54.4018 48.9477C55.5224 44.6972 56.0795 40.1299 56.0795 35.25H55.1705H54.2614C54.2614 39.9914 53.7201 44.4014 52.6437 48.4842L53.5227 48.716ZM55.1705 35.25H56.0795C56.0795 30.807 55.5773 27.4995 54.4204 25.5285L53.6364 25.9887L52.8523 26.4489C53.7409 27.9627 54.2614 30.8294 54.2614 35.25H55.1705ZM53.6364 25.9887L54.4204 25.5285C53.2212 23.4855 51.3182 22.466 48.8636 22.466V23.375V24.2841C50.7272 24.2841 52.0061 25.007 52.8523 26.4489L53.6364 25.9887ZM48.8636 23.375V22.466C47.6462 22.466 46.5526 22.802 45.6291 23.5034C44.7156 24.1971 44.0286 25.2024 43.5309 26.4465L44.375 26.7841L45.2191 27.1218C45.6305 26.0931 46.1461 25.3939 46.7288 24.9513C47.3015 24.5163 47.9978 24.2841 48.8636 24.2841V23.375ZM44.375 26.7841L43.5261 26.4587C42.589 28.9034 42.1591 33.0322 42.1591 38.716H43.0682H43.9773C43.9773 33.0361 44.4185 29.2104 45.2239 27.1095L44.375 26.7841ZM43.0682 38.716H42.1591C42.1591 47.7702 43.3242 55.9349 45.6689 63.1997L46.5341 62.9205L47.3992 62.6413C45.1227 55.5879 43.9773 47.6162 43.9773 38.716H43.0682Z" fill="black" mask="url(#path-1-outside-1_693_149)"/>
</g>
<defs>
<clipPath id="clip0_693_149">
<rect width="100" height="100" fill="white"/>
</clipPath>
</defs>
</svg>
