<svg width="15" height="15" viewBox="0 0 15 15" fill="none" xmlns="http://www.w3.org/2000/svg">
<path d="M0 6.06693C0 9.41211 2.74822 12.1339 6.1259 12.1339C7.46163 12.1339 8.6822 11.7081 9.68783 10.9935L13.4647 14.7415C13.6413 14.9164 13.8716 15 14.1172 15C14.6392 15 15 14.6123 15 14.1029C15 13.8596 14.9079 13.6392 14.7468 13.4796L10.9928 9.73902C11.7835 8.72025 12.2518 7.45062 12.2518 6.06693C12.2518 2.72176 9.5036 0 6.1259 0C2.74822 0 0 2.72176 0 6.06693ZM1.31269 6.06693C1.31269 3.43641 3.46981 1.30005 6.1259 1.30005C8.78199 1.30005 10.9391 3.43641 10.9391 6.06693C10.9391 8.69744 8.78199 10.8338 6.1259 10.8338C3.46981 10.8338 1.31269 8.69744 1.31269 6.06693Z" fill="#787572"/>
</svg>
